<svg width="46" height="46" viewBox="0 0 46 46" fill="none" xmlns="http://www.w3.org/2000/svg">
<path d="M34.8955 43.7C32.4585 43.7 30.3818 42.8418 28.6654 41.1254C26.949 39.409 26.0908 37.3323 26.0908 34.8953C26.0908 32.4583 26.949 30.3816 28.6654 28.6652C30.3818 26.9488 32.4585 26.0906 34.8955 26.0906C37.3325 26.0906 39.4092 26.9488 41.1256 28.6652C42.842 30.3816 43.7002 32.4583 43.7002 34.8953C43.7002 37.3323 42.842 39.409 41.1256 41.1254C39.4092 42.8418 37.3325 43.7 34.8955 43.7ZM39.9268 33.6375H36.1533V29.8641C36.1533 29.5234 36.0289 29.2286 35.7799 28.9797C35.531 28.7307 35.2362 28.6063 34.8955 28.6063C34.5548 28.6063 34.26 28.7307 34.0111 28.9797C33.7622 29.2286 33.6377 29.5234 33.6377 29.8641V34.8953C33.6377 35.2098 33.736 35.4784 33.9325 35.7011C34.129 35.9238 34.3714 36.0614 34.6597 36.1138C34.7121 36.14 34.7907 36.1531 34.8955 36.1531H39.9268C40.2674 36.1531 40.5622 36.0287 40.8112 35.7797C41.0601 35.5308 41.1846 35.236 41.1846 34.8953C41.1846 34.5547 41.0601 34.2599 40.8112 34.0109C40.5622 33.762 40.2674 33.6375 39.9268 33.6375ZM22.3174 36.1531H14.7705C14.4299 36.1531 14.1351 36.0287 13.8861 35.7797C13.6372 35.5308 13.5127 35.236 13.5127 34.8953C13.5127 34.5547 13.6372 34.2599 13.8861 34.0109C14.1351 33.762 14.4299 33.6375 14.7705 33.6375H22.3174C22.658 33.6375 22.9528 33.762 23.2018 34.0109C23.4507 34.2599 23.5752 34.5547 23.5752 34.8953C23.5752 35.236 23.4507 35.5308 23.2018 35.7797C22.9528 36.0287 22.658 36.1531 22.3174 36.1531ZM14.7705 28.6063H22.3174C22.658 28.6063 22.9528 28.7307 23.2018 28.9797C23.4507 29.2286 23.5752 29.5234 23.5752 29.8641C23.5752 30.2047 23.4507 30.4995 23.2018 30.7485C22.9528 30.9974 22.658 31.1219 22.3174 31.1219H14.7705C14.4299 31.1219 14.1351 30.9974 13.8861 30.7485C13.6372 30.4995 13.5127 30.2047 13.5127 29.8641C13.5127 29.5234 13.6372 29.2286 13.8861 28.9797C14.1351 28.7307 14.4299 28.6063 14.7705 28.6063ZM27.3486 26.0906H14.7705C14.4299 26.0906 14.1351 25.9662 13.8861 25.7172C13.6372 25.4683 13.5127 25.1735 13.5127 24.8328C13.5127 24.4922 13.6372 24.1974 13.8861 23.9484C14.1351 23.6995 14.4299 23.575 14.7705 23.575H27.3486C27.6893 23.575 27.9841 23.6995 28.233 23.9484C28.482 24.1974 28.6064 24.4922 28.6064 24.8328C28.6064 25.1735 28.482 25.4683 28.233 25.7172C27.9841 25.9662 27.6893 26.0906 27.3486 26.0906ZM32.3799 21.0594H14.7705C14.4299 21.0594 14.1351 20.9349 13.8861 20.686C13.6372 20.437 13.5127 20.1422 13.5127 19.8016C13.5127 19.4609 13.6372 19.1661 13.8861 18.9172C14.1351 18.6682 14.4299 18.5438 14.7705 18.5438H32.3799C32.7205 18.5438 33.0153 18.6682 33.2643 18.9172C33.5132 19.1661 33.6377 19.4609 33.6377 19.8016C33.6377 20.1422 33.5132 20.437 33.2643 20.686C33.0153 20.9349 32.7205 21.0594 32.3799 21.0594ZM32.3799 10.9969H14.7705C14.4299 10.9969 14.1351 10.8724 13.8861 10.6235C13.6372 10.3745 13.5127 10.0797 13.5127 9.73907C13.5127 9.39842 13.6372 9.10362 13.8861 8.85468C14.1351 8.60573 14.4299 8.48126 14.7705 8.48126H32.3799C32.7205 8.48126 33.0153 8.60573 33.2643 8.85468C33.5132 9.10362 33.6377 9.39842 33.6377 9.73907C33.6377 10.0797 33.5132 10.3745 33.2643 10.6235C33.0153 10.8724 32.7205 10.9969 32.3799 10.9969ZM32.3799 16.0281H14.7705C14.4299 16.0281 14.1351 15.9037 13.8861 15.6547C13.6372 15.4058 13.5127 15.111 13.5127 14.7703C13.5127 14.4297 13.6372 14.1349 13.8861 13.8859C14.1351 13.637 14.4299 13.5125 14.7705 13.5125H32.3799C32.7205 13.5125 33.0153 13.637 33.2643 13.8859C33.5132 14.1349 33.6377 14.4297 33.6377 14.7703C33.6377 15.111 33.5132 15.4058 33.2643 15.6547C33.0153 15.9037 32.7205 16.0281 32.3799 16.0281ZM36.1533 7.22345C36.1533 6.88279 36.0289 6.58799 35.7799 6.33905C35.531 6.09011 35.2362 5.96564 34.8955 5.96564H9.73926C9.3986 5.96564 9.1038 6.09011 8.85486 6.33905C8.60592 6.58799 8.48145 6.88279 8.48145 7.22345V8.48126C9.18896 8.48126 9.78512 8.72365 10.2699 9.20844C10.7547 9.69322 10.9971 10.2894 10.9971 10.9969C10.9971 11.7044 10.7547 12.3006 10.2699 12.7853C9.78512 13.2701 9.18896 13.5125 8.48145 13.5125V16.0281C9.18896 16.0281 9.78512 16.2705 10.2699 16.7553C10.7547 17.2401 10.9971 17.8362 10.9971 18.5438C10.9971 19.2513 10.7547 19.8474 10.2699 20.3322C9.78512 20.817 9.18896 21.0594 8.48145 21.0594V23.575C9.18896 23.575 9.78512 23.8174 10.2699 24.3022C10.7547 24.787 10.9971 25.3766 10.9971 26.071C10.9971 26.7654 10.7547 27.3616 10.2699 27.8594C9.78512 28.3573 9.18896 28.6063 8.48145 28.6063V31.1219C9.18896 31.1219 9.78512 31.3643 10.2699 31.8491C10.7547 32.3338 10.9971 32.9234 10.9971 33.6179C10.9971 34.3123 10.7547 34.9084 10.2699 35.4063C9.78512 35.9042 9.18896 36.1531 8.48145 36.1531V37.4109C8.48145 37.7516 8.60592 38.0464 8.85486 38.2953C9.1038 38.5443 9.3986 38.6688 9.73926 38.6688H26.0908V41.1844H8.48145C7.80013 41.1844 7.21053 40.9354 6.71265 40.4376C6.21476 39.9397 5.96582 39.3501 5.96582 38.6688V36.1531C5.28451 36.1531 4.69491 35.9042 4.19702 35.4063C3.69914 34.9084 3.4502 34.3123 3.4502 33.6179C3.4502 32.9234 3.69914 32.3338 4.19702 31.8491C4.69491 31.3643 5.28451 31.1219 5.96582 31.1219V28.6063C5.28451 28.6063 4.69491 28.3573 4.19702 27.8594C3.69914 27.3616 3.4502 26.7654 3.4502 26.071C3.4502 25.3766 3.69914 24.787 4.19702 24.3022C4.69491 23.8174 5.28451 23.575 5.96582 23.575V21.0594C5.28451 21.0594 4.69491 20.817 4.19702 20.3322C3.69914 19.8474 3.4502 19.2513 3.4502 18.5438C3.4502 17.8362 3.69914 17.2401 4.19702 16.7553C4.69491 16.2705 5.28451 16.0281 5.96582 16.0281V13.5125C5.28451 13.5125 4.69491 13.2701 4.19702 12.7853C3.69914 12.3006 3.4502 11.7044 3.4502 10.9969C3.4502 10.2894 3.69914 9.69322 4.19702 9.20844C4.69491 8.72365 5.28451 8.48126 5.96582 8.48126V5.96564C5.96582 5.25812 6.21476 4.66197 6.71265 4.17719C7.21053 3.6924 7.80013 3.45001 8.48145 3.45001H36.1533C36.8346 3.45001 37.4242 3.6924 37.9221 4.17719C38.42 4.66197 38.6689 5.25812 38.6689 5.96564V23.575H36.1533V7.22345Z" fill="#17181E"/>
</svg>
