<svg width="40" height="40" viewBox="0 0 40 40" fill="none" xmlns="http://www.w3.org/2000/svg">
<path d="M29.0391 36.33C27.021 36.33 25.3014 35.6194 23.8801 34.1981C22.4588 32.7768 21.7481 31.0571 21.7481 29.0391C21.7481 27.021 22.4588 25.3014 23.8801 23.8801C25.3014 22.4588 27.021 21.7481 29.0391 21.7481C31.0571 21.7481 32.7768 22.4588 34.1981 23.8801C35.6194 25.3014 36.33 27.021 36.33 29.0391C36.33 31.0571 35.6194 32.7768 34.1981 34.1981C32.7768 35.6194 31.0571 36.33 29.0391 36.33ZM33.2053 27.9975H30.0806V24.8728C30.0806 24.5907 29.9776 24.3466 29.7714 24.1405C29.5653 23.9343 29.3212 23.8313 29.0391 23.8313C28.757 23.8313 28.5129 23.9343 28.3067 24.1405C28.1006 24.3466 27.9975 24.5907 27.9975 24.8728V29.0391C27.9975 29.2995 28.0789 29.5219 28.2416 29.7063C28.4044 29.8908 28.6051 30.0047 28.8438 30.0481C28.8872 30.0698 28.9523 30.0806 29.0391 30.0806H33.2053C33.4874 30.0806 33.7315 29.9776 33.9377 29.7714C34.1438 29.5653 34.2469 29.3212 34.2469 29.0391C34.2469 28.757 34.1438 28.5129 33.9377 28.3067C33.7315 28.1006 33.4874 27.9975 33.2053 27.9975ZM18.6234 30.0806H12.3741C12.092 30.0806 11.8479 29.9776 11.6417 29.7714C11.4356 29.5653 11.3325 29.3212 11.3325 29.0391C11.3325 28.757 11.4356 28.5129 11.6417 28.3067C11.8479 28.1006 12.092 27.9975 12.3741 27.9975H18.6234C18.9055 27.9975 19.1496 28.1006 19.3558 28.3067C19.5619 28.5129 19.665 28.757 19.665 29.0391C19.665 29.3212 19.5619 29.5653 19.3558 29.7714C19.1496 29.9776 18.9055 30.0806 18.6234 30.0806ZM12.3741 23.8313H18.6234C18.9055 23.8313 19.1496 23.9343 19.3558 24.1405C19.5619 24.3466 19.665 24.5907 19.665 24.8728C19.665 25.1549 19.5619 25.399 19.3558 25.6052C19.1496 25.8113 18.9055 25.9144 18.6234 25.9144H12.3741C12.092 25.9144 11.8479 25.8113 11.6417 25.6052C11.4356 25.399 11.3325 25.1549 11.3325 24.8728C11.3325 24.5907 11.4356 24.3466 11.6417 24.1405C11.8479 23.9343 12.092 23.8313 12.3741 23.8313ZM22.7897 21.7481H12.3741C12.092 21.7481 11.8479 21.6451 11.6417 21.4389C11.4356 21.2328 11.3325 20.9887 11.3325 20.7066C11.3325 20.4245 11.4356 20.1804 11.6417 19.9742C11.8479 19.7681 12.092 19.665 12.3741 19.665H22.7897C23.0718 19.665 23.3159 19.7681 23.522 19.9742C23.7282 20.1804 23.8313 20.4245 23.8313 20.7066C23.8313 20.9887 23.7282 21.2328 23.522 21.4389C23.3159 21.6451 23.0718 21.7481 22.7897 21.7481ZM26.9559 17.5819H12.3741C12.092 17.5819 11.8479 17.4788 11.6417 17.2727C11.4356 17.0665 11.3325 16.8224 11.3325 16.5403C11.3325 16.2582 11.4356 16.0141 11.6417 15.808C11.8479 15.6018 12.092 15.4988 12.3741 15.4988H26.9559C27.238 15.4988 27.4821 15.6018 27.6883 15.808C27.8944 16.0141 27.9975 16.2582 27.9975 16.5403C27.9975 16.8224 27.8944 17.0665 27.6883 17.2727C27.4821 17.4788 27.238 17.5819 26.9559 17.5819ZM26.9559 9.24938H12.3741C12.092 9.24938 11.8479 9.1463 11.6417 8.94016C11.4356 8.73402 11.3325 8.4899 11.3325 8.20781C11.3325 7.92572 11.4356 7.68161 11.6417 7.47546C11.8479 7.26932 12.092 7.16625 12.3741 7.16625H26.9559C27.238 7.16625 27.4821 7.26932 27.6883 7.47546C27.8944 7.68161 27.9975 7.92572 27.9975 8.20781C27.9975 8.4899 27.8944 8.73402 27.6883 8.94016C27.4821 9.1463 27.238 9.24938 26.9559 9.24938ZM26.9559 13.4156H12.3741C12.092 13.4156 11.8479 13.3126 11.6417 13.1064C11.4356 12.9003 11.3325 12.6562 11.3325 12.3741C11.3325 12.092 11.4356 11.8479 11.6417 11.6417C11.8479 11.4356 12.092 11.3325 12.3741 11.3325H26.9559C27.238 11.3325 27.4821 11.4356 27.6883 11.6417C27.8944 11.8479 27.9975 12.092 27.9975 12.3741C27.9975 12.6562 27.8944 12.9003 27.6883 13.1064C27.4821 13.3126 27.238 13.4156 26.9559 13.4156ZM30.0806 6.12469C30.0806 5.8426 29.9776 5.59848 29.7714 5.39234C29.5653 5.1862 29.3212 5.08313 29.0391 5.08313H8.20781C7.92572 5.08313 7.68161 5.1862 7.47546 5.39234C7.26932 5.59848 7.16625 5.8426 7.16625 6.12469V7.16625C7.75213 7.16625 8.24579 7.36697 8.64722 7.7684C9.04866 8.16984 9.24938 8.6635 9.24938 9.24938C9.24938 9.83525 9.04866 10.3289 8.64722 10.7303C8.24579 11.1318 7.75213 11.3325 7.16625 11.3325V13.4156C7.75213 13.4156 8.24579 13.6163 8.64722 14.0178C9.04866 14.4192 9.24938 14.9129 9.24938 15.4988C9.24938 16.0846 9.04866 16.5783 8.64722 16.9797C8.24579 17.3812 7.75213 17.5819 7.16625 17.5819V19.665C7.75213 19.665 8.24579 19.8657 8.64722 20.2672C9.04866 20.6686 9.24938 21.1568 9.24938 21.7319C9.24938 22.3069 9.04866 22.8005 8.64722 23.2128C8.24579 23.6251 7.75213 23.8313 7.16625 23.8313V25.9144C7.75213 25.9144 8.24579 26.1151 8.64722 26.5165C9.04866 26.918 9.24938 27.4062 9.24938 27.9812C9.24938 28.5563 9.04866 29.0499 8.64722 29.4622C8.24579 29.8745 7.75213 30.0806 7.16625 30.0806V31.1222C7.16625 31.4043 7.26932 31.6484 7.47546 31.8545C7.68161 32.0607 7.92572 32.1638 8.20781 32.1638H21.7481V34.2469H7.16625C6.60207 34.2469 6.11384 34.0407 5.70155 33.6284C5.28927 33.2162 5.08312 32.7279 5.08312 32.1638V30.0806C4.51895 30.0806 4.03071 29.8745 3.61843 29.4622C3.20614 29.0499 3 28.5563 3 27.9812C3 27.4062 3.20614 26.918 3.61843 26.5165C4.03071 26.1151 4.51895 25.9144 5.08312 25.9144V23.8313C4.51895 23.8313 4.03071 23.6251 3.61843 23.2128C3.20614 22.8005 3 22.3069 3 21.7319C3 21.1568 3.20614 20.6686 3.61843 20.2672C4.03071 19.8657 4.51895 19.665 5.08312 19.665V17.5819C4.51895 17.5819 4.03071 17.3812 3.61843 16.9797C3.20614 16.5783 3 16.0846 3 15.4988C3 14.9129 3.20614 14.4192 3.61843 14.0178C4.03071 13.6163 4.51895 13.4156 5.08312 13.4156V11.3325C4.51895 11.3325 4.03071 11.1318 3.61843 10.7303C3.20614 10.3289 3 9.83525 3 9.24938C3 8.6635 3.20614 8.16984 3.61843 7.7684C4.03071 7.36697 4.51895 7.16625 5.08312 7.16625V5.08313C5.08312 4.49725 5.28927 4.00359 5.70155 3.60215C6.11384 3.20072 6.60207 3 7.16625 3H30.0806C30.6448 3 31.133 3.20072 31.5453 3.60215C31.9576 4.00359 32.1638 4.49725 32.1638 5.08313V19.665H30.0806V6.12469Z" fill="white"/>
</svg>
