<svg width="40" height="40" viewBox="0 0 40 40" fill="none" xmlns="http://www.w3.org/2000/svg">
<path fill-rule="evenodd" clip-rule="evenodd" d="M3.33325 8.33337C3.33325 7.00729 3.86004 5.73552 4.79772 4.79784C5.7354 3.86016 7.00717 3.33337 8.33325 3.33337H31.6666C32.9927 3.33337 34.2644 3.86016 35.2021 4.79784C36.1398 5.73552 36.6666 7.00729 36.6666 8.33337V31.6667C36.6666 32.9928 36.1398 34.2646 35.2021 35.2022C34.2644 36.1399 32.9927 36.6667 31.6666 36.6667H8.33325C7.00717 36.6667 5.7354 36.1399 4.79772 35.2022C3.86004 34.2646 3.33325 32.9928 3.33325 31.6667V8.33337ZM8.33325 6.66671C7.89122 6.66671 7.4673 6.8423 7.15474 7.15486C6.84218 7.46742 6.66659 7.89135 6.66659 8.33337V16.6667H33.3333V8.33337C33.3333 7.89135 33.1577 7.46742 32.8451 7.15486C32.5325 6.8423 32.1086 6.66671 31.6666 6.66671H8.33325ZM6.66659 20V31.6667C6.66659 32.1087 6.84218 32.5327 7.15474 32.8452C7.4673 33.1578 7.89122 33.3334 8.33325 33.3334H31.6666C32.1086 33.3334 32.5325 33.1578 32.8451 32.8452C33.1577 32.5327 33.3333 32.1087 33.3333 31.6667V20H6.66659ZM23.3333 21.6667C23.7752 21.6668 24.1991 21.8425 24.5116 22.155L31.1783 28.8217C31.4819 29.136 31.6498 29.557 31.646 29.994C31.6422 30.431 31.467 30.8491 31.158 31.1581C30.8489 31.4671 30.4309 31.6424 29.9939 31.6462C29.5569 31.65 29.1359 31.482 28.8216 31.1784L23.3333 25.69L19.5116 29.5117L17.8449 31.1784C17.5306 31.482 17.1096 31.65 16.6726 31.6462C16.2356 31.6424 15.8176 31.4671 15.5086 31.1581C15.1995 30.8491 15.0243 30.431 15.0205 29.994C15.0167 29.557 15.1847 29.136 15.4883 28.8217L15.9766 28.3334L14.9999 27.3567L11.1783 31.1784C10.8639 31.482 10.4429 31.65 10.0059 31.6462C9.56892 31.6424 9.1509 31.4671 8.84189 31.1581C8.53287 30.8491 8.35759 30.431 8.3538 29.994C8.35 29.557 8.51799 29.136 8.82159 28.8217L13.8216 23.8217C14.1341 23.5093 14.558 23.3337 14.9999 23.3337C15.4419 23.3337 15.8657 23.5093 16.1783 23.8217L18.3333 25.9767L22.1549 22.155C22.4674 21.8425 22.8913 21.6668 23.3333 21.6667ZM18.3333 11.6667C18.3333 11.2247 18.5088 10.8008 18.8214 10.4882C19.134 10.1756 19.5579 10 19.9999 10H28.3333C28.7753 10 29.1992 10.1756 29.5118 10.4882C29.8243 10.8008 29.9999 11.2247 29.9999 11.6667C29.9999 12.1087 29.8243 12.5327 29.5118 12.8452C29.1992 13.1578 28.7753 13.3334 28.3333 13.3334H19.9999C19.5579 13.3334 19.134 13.1578 18.8214 12.8452C18.5088 12.5327 18.3333 12.1087 18.3333 11.6667ZM11.6666 14.5834C12.4401 14.5834 13.182 14.2761 13.729 13.7291C14.276 13.1821 14.5833 12.4403 14.5833 11.6667C14.5833 10.8932 14.276 10.1513 13.729 9.60431C13.182 9.05733 12.4401 8.75004 11.6666 8.75004C10.893 8.75004 10.1512 9.05733 9.60419 9.60431C9.05721 10.1513 8.74992 10.8932 8.74992 11.6667C8.74992 12.4403 9.05721 13.1821 9.60419 13.7291C10.1512 14.2761 10.893 14.5834 11.6666 14.5834V14.5834Z" fill="white"/>
</svg>
