<svg width="70" height="70" viewBox="0 0 70 70" fill="none" xmlns="http://www.w3.org/2000/svg">
<path fill-rule="evenodd" clip-rule="evenodd" d="M43.6478 41.5771H45.952L60.5061 56.1604L56.1603 60.5063L41.577 45.9521V43.6479L40.7895 42.8313C37.4645 45.6896 33.1478 47.4104 28.452 47.4104C17.9812 47.4104 9.49365 38.9229 9.49365 28.4521C9.49365 17.9813 17.9812 9.49377 28.452 9.49377C38.9228 9.49377 47.4103 17.9813 47.4103 28.4521C47.4103 33.1479 45.6895 37.4646 42.8312 40.7896L43.6478 41.5771ZM15.327 28.4521C15.327 35.7146 21.1895 41.5771 28.452 41.5771C35.7145 41.5771 41.577 35.7146 41.577 28.4521C41.577 21.1896 35.7145 15.3271 28.452 15.3271C21.1895 15.3271 15.327 21.1896 15.327 28.4521Z" fill="black" fill-opacity="0.54"/>
</svg>
