<svg width="139" height="157" viewBox="0 0 139 157" fill="none" xmlns="http://www.w3.org/2000/svg">
<ellipse cx="41.6641" cy="115.567" rx="27.9291" ry="31.1242" transform="rotate(53.0151 41.6641 115.567)" fill="#40899F"/>
<ellipse cx="60.5314" cy="39.7009" rx="27.9291" ry="31.1242" transform="rotate(119.787 60.5314 39.7009)" fill="#406C9F"/>
<ellipse cx="116.432" cy="87.4079" rx="19.7611" ry="22.0217" transform="rotate(91.608 116.432 87.4079)" fill="#484776"/>
<path d="M24.4242 97.6959C26.4642 97.6959 26.1289 98.6065 26.1289 100.375C26.1289 101.38 26.0541 101.727 25.5877 102.567C25.4779 102.764 25.0237 103.175 25.1819 102.661C25.4401 101.822 26.209 101.039 26.8054 100.429C27.7471 99.4658 28.7644 98.4234 30.1472 98.1829C31.3029 97.982 32.3845 97.9394 33.5567 97.9394C33.747 97.9394 34.296 98.1209 34.1114 98.0747C33.7221 97.9774 33.3853 96.8518 33.1914 96.5323C32.0158 94.596 33.2594 92.7812 34.7744 91.4993C35.1037 91.2206 36.6976 90.2931 35.735 91.2558C34.6822 92.3085 33.2072 93.0227 32.0008 93.894C30.9775 94.6331 29.3037 95.2334 28.0772 94.5841C27.6333 94.3491 27.5901 93.6193 27.5901 94.2864C27.5901 94.8744 27.6818 95.548 27.5766 96.1264C27.3466 97.3915 25.2548 97.9394 24.1807 97.9394" stroke="black" stroke-linecap="round" stroke-linejoin="round"/>
<path d="M74.1047 15.1381C73.2167 14.4654 72.7674 13.289 72.0347 12.7028C71.8845 12.5827 71.7337 11.9993 71.5476 11.9993C71.329 11.9993 71.4193 13.2032 71.4258 13.3793C71.4981 15.3312 73.3656 16.5993 75.2141 16.5993C76.3576 16.5993 76.053 17.2777 76.053 18.25C76.053 19.2599 75.7895 20.5982 76.8377 19.2782C78.0461 17.7565 78.4074 18.2186 79.706 19.1564C80.5583 19.772 81.8681 20.6961 82.8719 20.9829C83.1633 21.0662 84.7047 22.078 84.279 21.2265C83.8232 20.3149 82.0188 19.4604 81.1672 18.9129C80.4592 18.4578 79.694 18.0503 78.9754 17.6276C78.4875 17.3406 78.1678 16.5032 77.8118 16.0582C77.4338 15.5856 78.5327 14.1196 78.8536 13.7987C79.1525 13.4998 80.8564 12.0095 79.8277 12.581C78.4699 13.3354 76.5524 13.8957 75.8094 15.3817" stroke="black" stroke-linecap="round" stroke-linejoin="round"/>
</svg>
