<svg width="295" height="280" viewBox="0 0 295 280" fill="none" xmlns="http://www.w3.org/2000/svg">
<circle cx="171.824" cy="157.108" r="101.519" fill="#8AB510"/>
<path d="M241.044 201.3C232.626 201.5 223.034 204.215 215.382 199.336C205.948 193.32 203.394 183.443 196.753 175.163C190.296 167.111 184.423 164.62 174.273 165.212C165.348 165.732 159.711 169.673 151.374 164.357C140.666 157.53 136.895 144.693 134.043 133.052C132.841 128.148 133.289 122.957 133.289 117.933C133.289 111.805 130.944 108.707 126.424 104.95C121.25 100.649 113.591 101.937 108.757 97.0059C99.447 87.5074 96.6389 73.9907 98.5847 61.0879C99.3156 56.2411 99.4197 53.2257 104.487 51.5639C107.595 50.5447 110.822 49.8556 114.074 49.8556C117.786 49.8556 121.03 53.8358 124.833 51.3931C128.965 48.7388 131.026 44.1841 135.717 42.7659C144.147 40.2178 150.098 42.5257 158.114 45.9691C161.798 47.5516 165.29 49.0928 168.705 51.2222C169.555 51.752 169.948 54.261 170.673 54.4254C173.527 55.0724 176.923 54.3581 179.841 54.5108C186.311 54.8493 192.354 57.0144 198.679 58.141C207 59.6232 216.931 67.8307 216.931 76.762" stroke="black" stroke-linecap="round" stroke-linejoin="round"/>
<path d="M129.523 114.431C119.077 114.431 108.603 112.776 99.549 119.044C97.4718 120.482 93.0673 127.744 91.6788 125.194C89.0727 120.408 80.1618 119.044 75.4359 119.044C71.2508 119.044 65.8651 122.086 63.9655 125.962" stroke="black" stroke-linecap="round" stroke-linejoin="round"/>
<path d="M95.6145 71.3808C92.1415 70.7059 86.2838 69.5048 82.8463 71.0391C79.9961 72.3112 79.083 76.5547 77.6971 79.0683C77.0643 80.2161 76.0868 77.6421 75.5621 77.1891C73.9436 75.792 71.3403 75.2245 69.2827 75.2245C66.0088 75.2245 66.1215 76.1006 63.9661 78.2996" stroke="black" stroke-linecap="round" stroke-linejoin="round"/>
<path d="M121.987 49.8555C115.049 46.3885 105.543 43.4465 97.8737 46.0544C94.544 47.1867 87.8584 53.5888 86.5707 57.2014C86.2046 58.2285 84.8069 61.3159 83.5566 61.3868C82.5868 61.4418 79.2001 60.7917 78.4493 61.5576C76.8669 63.172 72.3989 76.836 75.2677 78.2994" stroke="black" stroke-linecap="round" stroke-linejoin="round"/>
<path d="M38.5459 107.503C21.3184 118.465 4.12829 134.879 1.93552 156.076C1.05138 164.623 -0.0111886 173.475 2.94447 181.804C5.667 189.477 16.3637 189.164 22.9793 189.227C37.6368 189.368 49.0178 181.444 63.193 181.444C73.1956 181.444 69.6791 196.503 69.6791 203.497C69.6791 213.724 77.5479 218.846 87.5519 219.063C102.313 219.384 106.377 199.739 117.388 192.398C123.85 188.09 130.411 187.93 137.855 187.93C146.645 187.93 154.99 186.087 163.223 183.029C171.764 179.857 172.741 176.522 174.754 168.472" stroke="black" stroke-linecap="round" stroke-linejoin="round"/>
<path d="M199.397 123.069C215.932 111.722 229.68 97.3766 230.458 76.3696C230.758 68.2809 231.425 59.2688 230.386 51.2179C229.289 42.7187 220.569 42.6419 213.81 42.6419C207.921 42.6419 204.218 43.8933 198.892 45.6687C198.803 45.6986 197.708 23.8354 197.307 21.3819C194.366 3.41285 176.418 -1.04074 160.624 1.77952C152.503 3.22968 145.051 5.55778 136.554 6.60805C119.654 8.69682 100.769 21.13 90.4305 34.5703C88.8296 36.6515 86.1634 36.8916 83.9444 38.0296C76.3277 41.9355 68.6013 46.4011 61.8917 51.7224C52.2592 59.362 41.1362 68.2857 41.1362 81.5584" stroke="black" stroke-linecap="round" stroke-linejoin="round"/>
<path d="M248.694 99.7236C258.555 93.1493 267.456 73.8265 256.405 64.0501C252.464 60.5642 249.168 58.3321 243.793 58.2127C239.811 58.1242 237.952 58.3028 239.325 54.0327C243.602 40.7262 238.05 31.6075 224.551 27.8001C215.068 25.1254 200.437 23.447 192.913 30.9711" stroke="black" stroke-linecap="round" stroke-linejoin="round"/>
<path d="M51.5181 230.738C54.1252 241.166 69.189 237.391 78.1831 237.224C85.0061 237.098 92.982 228.249 95.6235 222.306C96.4843 220.369 97.638 219.992 98.5062 221.946C101.472 228.618 110.029 230.816 116.379 232.54C131.5 236.644 149.278 237.668 153.998 220.36" stroke="black" stroke-linecap="round" stroke-linejoin="round"/>
</svg>
