<svg width="261" height="438" viewBox="0 0 261 438" fill="none" xmlns="http://www.w3.org/2000/svg">
<path d="M132.445 192.133C132.445 194.959 139.583 205.869 143.152 210.971H114.089C112.815 208.813 108.736 204.142 102.617 202.73C94.9693 200.964 92.6748 210.971 65.1417 210.971C37.6087 210.971 11.6053 195.665 3.19264 192.133C-5.22 188.601 11.6053 179.771 36.0793 179.182C55.6585 178.711 67.1814 182.518 70.4955 184.48C66.9264 179.575 57.1878 165.171 46.7864 146.805C33.7845 123.846 3.95723 16.1165 11.6053 3.75406C19.2533 -8.60833 40.6679 23.7694 52.14 39.0752C59.7686 49.2531 60.8801 60.4071 60.306 66.9252C61.4164 64.1665 64.2593 60.0698 70.4955 54.9696C82.7324 44.962 95.7341 80.8718 102.617 95.5889C108.124 107.363 104.912 132.676 102.617 143.861C105.167 135.227 111.795 116.193 117.913 109.129C125.562 100.298 132.445 92.6455 143.152 103.242C153.859 113.838 148.506 130.91 147.741 146.805C146.976 162.699 132.445 188.601 132.445 192.133Z" fill="#537000" stroke="#537000"/>
<path d="M86.8191 265.25C81.0978 235.539 113.757 206.448 132.589 200.973C148.084 195.735 171.208 186.662 201.96 211.685C221.269 227.398 280.627 420.942 240.578 435.94C200.53 450.938 93.9707 302.387 86.8191 265.25Z" fill="#FFA114" stroke="#FFA114"/>
<path d="M133.799 279.986C147.57 257.066 178.065 243.552 204.137 242.849C212.997 242.61 221.425 245.436 229.047 249.786C230.966 250.881 233.174 251.999 234.411 253.851" stroke="black" stroke-linecap="round" stroke-linejoin="round"/>
<path d="M162.878 320.06C166.624 311.642 175.9 304.05 183.524 299.217C192.101 293.778 202.182 289.482 212.053 287.085C219.346 285.313 226.641 285.213 234.088 285.213C236.218 285.213 241.688 284.946 242.553 287.536" stroke="black" stroke-linecap="round" stroke-linejoin="round"/>
<path d="M182.651 358.972C190.54 350.887 197.65 342.983 207.336 336.903C214.136 332.634 221.229 330.437 229.177 329.643C235.362 329.025 241.836 329.151 248.045 329.385C252.077 329.537 256.065 331.095 260 331.095" stroke="black" stroke-linecap="round" stroke-linejoin="round"/>
<path d="M124.82 213.092C119.571 211.31 113.65 208.856 107.988 209.17C106.925 209.229 105.965 210.487 104.933 210.851C101.429 212.086 98.1167 213.708 94.7717 215.334C86.1485 219.523 75.8877 222.591 66.3437 223.302C61.0101 223.7 55.6113 224.126 50.3218 223.053C44.4038 221.854 39.566 218.803 34.5493 215.645C28.4762 211.821 22.1884 207.534 17.0935 202.446C13.7919 199.149 14.9935 197.373 19.1196 195.162C32.251 188.126 49.7578 190.68 64.0682 190.68C74.2015 190.68 84.3041 191.016 94.3976 191.24C94.7527 191.248 97.3562 191.456 95.9561 191.115C89.8018 189.621 83.946 188.062 78.0017 185.792C56.7333 177.672 42.5847 163.197 28.4398 145.979C20.2212 135.975 13.0636 125.588 8.77087 113.263C4.29586 100.415 4.13833 87.0136 4.18874 73.5737C4.22075 65.0381 5.26433 56.9619 6.43305 48.5463C7.11959 43.6028 7.64996 38.5814 9.23844 33.8225C10.4916 30.0682 11.9285 26.6753 13.6959 23.1454C14.4052 21.7287 14.8593 19.3386 16.0961 18.227C16.6921 17.6913 19.2672 18.0832 19.8989 18.227C25.0371 19.3973 29.0508 24.8137 32.2738 28.4995C41.2406 38.754 48.8633 50.178 54.9663 62.3674C59.687 71.796 65.613 80.1499 70.957 89.1381C72.0179 90.9224 73.4875 92.4825 74.4482 94.3054C75.2524 95.8314 75.2803 94.5754 75.4768 93.4961C76.1798 89.6351 80.3862 86.0962 82.7397 83.2236C84.8479 80.6503 89.2193 78.8564 91.7481 81.7606C96.0954 86.7533 100.007 91.6233 101.692 98.2276C103.529 105.431 104.84 113.025 106.024 120.36C106.692 124.491 107.732 128.869 107.988 132.967C108.029 133.619 107.97 131.108 108.019 130.664C108.402 127.224 111.516 123.685 113.724 121.201C117.284 117.193 121.982 113.956 127.564 115.162C136.567 117.106 137.006 123.314 138.286 131.286C139.536 139.068 139.7 148.514 138.006 156.22C136.781 161.792 134.325 167.084 132.395 172.438C131.286 175.514 129.623 178.207 128.312 181.154C126.902 184.322 130.969 185.816 132.676 187.598C136.893 192.001 140.261 195.475 142.214 201.326" stroke="black" stroke-linecap="round" stroke-linejoin="round"/>
</svg>
