<svg width="171" height="144" viewBox="0 0 171 144" fill="none" xmlns="http://www.w3.org/2000/svg">
<circle cx="38.5" cy="105.5" r="38.5" fill="#E06308"/>
<circle cx="126.5" cy="67.5001" r="38.5" fill="#E06308"/>
<path d="M41.8966 78.0001C45.2069 71.8881 50.8345 56.521 46.8621 43.9479C42.8897 31.3748 31.9655 18.7518 27 14.0119C43.9655 13.7625 77.7124 17.4756 87.4138 22.6185C99.4138 28.98 107.69 40.2059 111 52.5545" stroke="#537000" stroke-width="4"/>
<rect x="14" y="17.5054" width="20" height="12" rx="5" transform="rotate(-61.0771 14 17.5054)" fill="#537000"/>
<path d="M17.2095 17.4088C18.7158 18.3332 20.4119 19.22 21.8266 20.2657C22.3973 20.6875 23.8378 21.7951 24.5969 21.7951C26.2815 21.7951 27.6368 19.0331 28.8966 18.2457C29.9994 17.5564 30.1878 17.0468 31.7679 17.6974C35.7119 19.3214 39.3161 22.5422 42.6038 25.2002C45.8696 27.8407 47.8821 33.0707 49.1543 36.8874C50.8828 42.0728 52.3336 47.4263 53.1078 52.8454C53.6406 56.5755 53.8985 60.6388 53.555 64.4171C53.4753 65.2937 53.0015 68.9863 52.2709 69.3517" stroke="black" stroke-linecap="round" stroke-linejoin="round"/>
<path d="M33.5718 10.9161C42.5079 10.9161 51.444 10.9161 60.3801 10.9161C65.3349 10.9161 70.2689 10.9243 75.1838 11.6375C78.7345 12.1528 82.1879 13.1213 85.6589 14.0038C94.0878 16.1467 102.343 20.0115 107.792 27.0184C109.8 29.5996 111.205 32.7122 112.496 35.7044C113.395 37.7891 113.579 40.0692 114.343 42.1972C114.773 43.3965 116.866 47.3252 115.382 48.3149" stroke="black" stroke-linecap="round" stroke-linejoin="round"/>
<path d="M41.8825 67.7933C39.6693 67.7933 37.3816 67.6347 35.1877 67.9665C31.3752 68.543 27.9722 71.0008 25.0444 73.3628C18.2788 78.8207 13.1931 86.1868 9.79337 94.1688C7.55867 99.4154 5.94742 104.917 5.79666 110.646C5.64892 116.26 7.81472 121.257 11.3949 125.565C19.953 135.864 34.1057 138.212 46.5574 139.792C51.8828 140.468 57.1115 140.578 62.2701 138.941C67.2386 137.363 70.7381 132.455 73.5965 128.364C75.6796 125.384 78.3545 121.946 79.3968 118.38C80.0868 116.019 80.1755 113.554 80.0316 111.108C79.9049 108.953 79.1147 107.105 78.5311 105.062C77.9884 103.163 77.6052 101.199 77.1459 99.2765C76.3918 96.1204 76.0498 92.5372 74.6065 89.6093C73.2596 86.877 71.653 84.7005 69.4411 82.6115C67.105 80.4052 65.0057 77.9121 62.5298 75.8589C58.8874 72.8384 55.4576 69.4143 50.4531 71.689" stroke="black" stroke-linecap="round" stroke-linejoin="round"/>
<path d="M101.097 41.3025C98.3756 47.569 97.2388 54.2946 96.4225 61.0408C95.9714 64.7693 95.8179 68.5144 95.7011 72.2662C95.5847 76.0052 95.2882 80.0373 95.9608 83.7369C96.8237 88.4828 100.509 93.7572 104.517 96.4485C110.308 100.337 118.025 101.216 124.76 101.758C131.856 102.329 139.46 102.539 146.288 100.2C151.683 98.3518 155.492 94.8089 160.038 91.5716C163.319 89.2349 166.092 85.702 167.786 82.0199C170.154 76.8721 170.073 71.0005 169.893 65.4559C169.771 61.7032 168.476 58.4466 167.454 54.9086C166.427 51.3534 165.494 47.6402 163.169 44.6788C158.669 38.9452 153.463 33.8376 146.807 30.6542C145.484 30.0213 144.271 29.1617 142.911 28.6054C141.703 28.111 140.373 27.9421 139.131 27.5376C136.323 26.6234 133.822 26.2391 130.878 26.2391C127.185 26.2391 124.025 26.6525 120.72 28.4322C119.976 28.8331 119.022 29.1208 118.412 29.7308C118.097 30.0451 118.103 30.9995 117.979 31.4334" stroke="black" stroke-linecap="round" stroke-linejoin="round"/>
</svg>
