<svg width="462" height="551" viewBox="0 0 462 551" fill="none" xmlns="http://www.w3.org/2000/svg">
<rect x="137" width="23" height="175" rx="11.5" fill="#6F5E26"/>
<rect x="90" y="68.2634" width="23" height="66.1558" rx="11.5" transform="rotate(-45 90 68.2634)" fill="#6F5E26"/>
<ellipse cx="154.147" cy="265.047" rx="53.5" ry="67.5" transform="rotate(15 154.147 265.047)" fill="#BB80B5"/>
<ellipse cx="244.47" cy="399.17" rx="50.8759" ry="64.1892" transform="rotate(15 244.47 399.17)" fill="#BB80B5"/>
<ellipse cx="326.452" cy="366.522" rx="40.9269" ry="51.6367" transform="rotate(-45 326.452 366.522)" fill="#A45D9D"/>
<ellipse cx="192.5" cy="185.5" rx="53.5" ry="67.5" fill="#A45D9D"/>
<ellipse cx="317.569" cy="199.569" rx="35.9974" ry="45.4173" transform="rotate(-45 317.569 199.569)" fill="#A45D9D"/>
<ellipse cx="83.1374" cy="313.346" rx="53.5" ry="67.5" transform="rotate(-17.2821 83.1374 313.346)" fill="#AEAE70"/>
<ellipse cx="343.137" cy="298.346" rx="53.5" ry="67.5" transform="rotate(-17.2821 343.137 298.346)" fill="#AEAE70"/>
<ellipse cx="192.5" cy="185.5" rx="53.5" ry="67.5" fill="#A45D9D"/>
<ellipse cx="297.5" cy="458.5" rx="53.5" ry="67.5" fill="#A45D9D"/>
<ellipse cx="170.5" cy="353.5" rx="53.5" ry="67.5" transform="rotate(9.58737 170.5 353.5)" fill="#A45D9D"/>
<ellipse cx="85.2066" cy="206.082" rx="53.5" ry="67.5" transform="rotate(60 85.2066 206.082)" fill="#A45D9D"/>
<ellipse cx="263.075" cy="277.389" rx="62" ry="78" transform="rotate(15 263.075 277.389)" fill="#755A8A"/>
<ellipse cx="218.342" cy="427.878" rx="41.301" ry="51.9593" transform="rotate(15 218.342 427.878)" fill="#755A8A"/>
<ellipse cx="375.015" cy="464.016" rx="53.871" ry="67.7732" transform="rotate(-45 375.015 464.016)" fill="#755A8A"/>
<path d="M184.504 115.772C177.903 115.772 167.315 113.814 161.399 117.172C150.399 123.416 142.961 134.798 134.513 143.871C129.191 149.587 124.46 153.898 122.284 161.515C121.633 163.794 120.738 159.722 120.464 159.274C117.734 154.826 111.696 150.829 107.114 148.539C100.518 145.241 93.7908 145.178 86.5767 145.178C78.7715 145.178 70.7596 144.675 63.0051 145.645C53.6419 146.815 42.7433 151.311 35.7928 157.827C21.9087 170.843 13.9482 190.494 13.9482 209.451C13.9482 218.883 15.5794 227.519 20.0162 235.917C23.4136 242.348 29.3764 245.93 34.2991 250.853C35.4691 252.023 22.6405 270.842 21.5098 273.911C17.594 284.54 15.6286 295.832 15.6286 307.145C15.6286 319.56 23.1034 328.347 30.7517 337.578C37.3444 345.534 43.4234 355.163 54.4633 356.715C60.9312 357.625 68.8309 357.304 75.281 356.248C78.4408 355.731 93.2091 356.333 94.605 353.541" stroke="black" stroke-linecap="round" stroke-linejoin="round"/>
<path d="M98.806 355.221C98.806 369.75 96.5645 385.016 108.561 395.55C114.356 400.638 120.974 406.122 127.792 409.739C133.051 412.53 138.484 416.431 144.362 417.581C157.474 420.146 166.245 417.169 175.262 408.152" stroke="black" stroke-linecap="round" stroke-linejoin="round"/>
<path d="M266.001 192.228C257.681 192.228 248.078 190.899 239.955 192.788C227.26 195.74 215.156 207.185 207.282 217.106C191.755 236.67 187.864 266.344 187.864 290.528C187.864 307.024 195.764 317.163 208.449 327.029C213.289 330.793 219.353 334.652 224.832 337.391C225.352 337.651 234.633 340.088 232.72 340.939C218.29 347.352 204.114 359.518 193.279 370.811C188.292 376.009 185.232 383.761 184.037 390.789C182.853 397.751 182.526 407.856 184.177 414.827C186.06 422.779 190.643 431.311 194.632 438.352C198.137 444.537 202.509 452.305 209.709 454.362" stroke="black" stroke-linecap="round" stroke-linejoin="round"/>
<path d="M297.087 157.781C314.321 157.781 332.729 158.135 345.817 171.223C350.425 175.831 354.119 180.01 357.579 185.506C361.676 192.012 361.78 197.773 361.78 205.297C361.78 211.728 360.18 215.244 355.899 220C354.134 221.962 347.591 227.761 347.591 230.456C347.591 231.836 358.638 236.2 359.913 236.944C365.587 240.253 370.683 243.302 375.41 247.866C394.445 266.245 391.641 294.676 383.625 317.88C380.742 326.225 373.375 331.215 366.821 336.364C362.086 340.085 356.495 341.542 351.698 345.139" stroke="black" stroke-linecap="round" stroke-linejoin="round"/>
<path d="M350.018 345.139C356.933 346.695 358.211 354.815 360.894 360.683C363.724 366.874 365.509 374.524 366.028 381.267C366.707 390.095 368.491 404.515 357.58 408.152" stroke="black" stroke-linecap="round" stroke-linejoin="round"/>
<path d="M357.58 410.673C365.32 410.673 373.869 409.682 381.431 411.607C388.919 413.512 392.937 419.55 398.748 424.069C409.686 432.576 420.404 443.682 428.154 455.202C441.033 474.347 445.687 508.388 421.853 520.689C412.48 525.527 401.347 528.157 390.813 528.297C384.335 528.384 377.368 528.935 371.022 527.457C364.649 525.973 358.747 522.774 352.912 519.896C343.697 515.35 334.766 510.102 326.54 503.932C322.53 500.925 316.644 495.11 315.524 490.069C315.192 488.575 313.984 487.534 313.237 486.289C312.039 484.292 312.826 490.952 312.21 493.197C309.82 501.913 304.942 506.72 297.134 510.234C289.441 513.695 279.263 513.709 272.069 508.973C263.653 503.434 252.095 492.449 250.224 481.901C248.349 471.333 243.316 459.575 243.316 448.901C243.316 444.172 235.815 453.156 234.541 454.362C229.555 459.078 222.713 461.202 217.271 465.284" stroke="black" stroke-linecap="round" stroke-linejoin="round"/>
<path d="M140.551 1.09351C134.259 2.74157 132.17 10.0048 130.4 15.5851C127.424 24.9711 127.017 34.4945 127.017 44.2607C127.017 52.7996 126.426 61.4649 128.247 69.8602C128.893 72.8398 129.108 75.9376 129.819 78.8833C130.285 80.8112 131.246 82.6137 131.323 84.6252C131.359 85.5577 131.052 84.4792 130.571 84.1467C129.112 83.1366 127.367 82.9129 125.752 82.2669C121.89 80.7223 118.224 78.9989 114.712 76.7642C112.299 75.2284 103.533 70.1029 100.563 73.073C95.8177 77.818 94.6802 86.8635 98.1702 92.4862C101.05 97.126 104.754 100.643 108.56 104.449C112.637 108.526 116.326 113.035 120.728 116.753C123.535 119.123 125.564 121.992 128.828 123.828C130.231 124.617 133.126 125.983 134.057 127.314C135.164 128.895 133.738 132.733 133.476 134.389C132.855 138.324 132.821 142.209 132.417 146.146C132.286 147.422 132.514 152.455 131.323 153.05" stroke="black" stroke-linecap="round" stroke-linejoin="round"/>
</svg>
