<svg width="179" height="175" viewBox="0 0 179 175" fill="none" xmlns="http://www.w3.org/2000/svg">
<ellipse rx="66.989" ry="61.2718" transform="matrix(0.845266 0.534347 -0.536568 0.843857 89.5 87.5)" fill="#FFDD63"/>
<path d="M49.3684 85.2244C49.3684 87.0557 49.3684 88.8871 49.3684 90.7184" stroke="black" stroke-linecap="round" stroke-linejoin="round"/>
<path d="M63.1433 106.59C63.825 107.25 64.774 108.319 65.5922 108.726" stroke="black" stroke-linecap="round" stroke-linejoin="round"/>
<path d="M72.3259 87.9718C72.3259 89.2061 72.2458 90.0325 73.0062 91.0241C73.3584 91.4833 73.9285 91.778 74.1626 92.245" stroke="black" stroke-linecap="round" stroke-linejoin="round"/>
<path d="M96.2029 105.98C97.8005 106.655 99.3433 107.506 101.101 107.506" stroke="black" stroke-linecap="round" stroke-linejoin="round"/>
<path d="M94.6721 123.072C95.7192 123.072 102.367 124.209 102.631 123.683" stroke="black" stroke-linecap="round" stroke-linejoin="round"/>
<path d="M119.774 116.663C120.794 116.663 121.815 116.663 122.835 116.663" stroke="black" stroke-linecap="round" stroke-linejoin="round"/>
<path d="M74.1624 125.209C74.4326 125.843 74.6874 126.245 75.0807 126.735" stroke="black" stroke-linecap="round" stroke-linejoin="round"/>
<path d="M45.0815 102.622C45.394 104.076 46.0441 104.847 46.6121 105.98" stroke="black" stroke-linecap="round" stroke-linejoin="round"/>
<path d="M48.6673 37.6982C42.7934 37.6982 25.6751 36.0498 30.3662 46.3402C32.3909 50.7815 30.6662 55.8282 30.6662 60.4334" stroke="black" stroke-linecap="round" stroke-linejoin="round"/>
<path d="M143.473 122.058C143.473 124.049 144.715 132.113 142.74 133.426C139.373 135.664 133.775 137.614 129.673 137.614" stroke="black" stroke-linecap="round" stroke-linejoin="round"/>
</svg>
