<svg width="219" height="222" viewBox="0 0 219 222" fill="none" xmlns="http://www.w3.org/2000/svg">
<ellipse rx="81.8706" ry="74.9082" transform="matrix(-0.627615 0.778524 0.77584 0.630929 109.5 111)" fill="#FFDD63"/>
<path d="M154.928 92.6733C155.643 94.8023 156.358 96.9313 157.072 99.0603" stroke="black" stroke-linecap="round" stroke-linejoin="round"/>
<path d="M147.367 122.894C146.838 123.927 146.159 125.541 145.374 126.335" stroke="black" stroke-linecap="round" stroke-linejoin="round"/>
<path d="M129.505 104.837C129.987 106.272 130.402 107.202 129.911 108.652C129.684 109.323 129.141 109.888 129.053 110.523" stroke="black" stroke-linecap="round" stroke-linejoin="round"/>
<path d="M108.975 135.102C107.394 136.511 105.946 138.103 103.918 138.79" stroke="black" stroke-linecap="round" stroke-linejoin="round"/>
<path d="M117.411 154.375C116.202 154.784 108.973 158.703 108.463 158.194" stroke="black" stroke-linecap="round" stroke-linejoin="round"/>
<path d="M85.9392 156.731C84.7616 157.13 83.584 157.529 82.4063 157.928" stroke="black" stroke-linecap="round" stroke-linejoin="round"/>
<path d="M141.915 148.844C141.85 149.687 141.713 150.254 141.45 150.977" stroke="black" stroke-linecap="round" stroke-linejoin="round"/>
<path d="M166.664 111.224C166.871 113.036 166.421 114.186 166.208 115.725" stroke="black" stroke-linecap="round" stroke-linejoin="round"/>
<path d="M171.287 30.8578C171.287 20.8754 165.685 16.9968 156.172 16.9968C150.349 16.9968 143.535 20.1732 140.546 25.5774C137.827 30.4933 128.79 28.0203 124.335 27.5942C114.846 26.6865 106.961 28.1189 98.0121 32.1778C81.8959 39.4879 68.7303 51.2153 57.0848 64.52C45.2977 77.9864 31.3468 96.137 28.3883 114.39C26.3395 127.031 27.7591 142.031 33.4266 153.626C35.8164 158.515 39.7511 164.026 43.9414 167.487C46.0437 169.223 50.3371 171.547 51.5354 174.087C52.2045 175.506 51.6814 178.194 51.6814 179.661C51.6814 183.707 51.6814 187.753 51.6814 191.798C51.6814 194.592 51.515 196.655 53.3244 198.876C59.3948 206.328 70.645 201.571 77.3111 197.189C80.7161 194.95 84.1275 192.458 88.1545 191.578C95.3053 190.017 102.583 190.799 109.841 190.552C120.539 190.188 129.2 184.684 138.136 179.331C146.966 174.041 155.419 167.454 163.072 160.556C168.691 155.492 175.008 150.933 179.027 144.385C182.727 138.357 185.56 130.835 186.256 123.777C187.746 108.662 188.625 93.1514 188.994 77.9776C189.166 70.9105 189.948 63.7233 186.73 57.2595C183.687 51.1455 181.724 45.2296 175.522 41.9318C172.137 40.1318 172.601 36.1695 172.601 32.8379" stroke="black" stroke-linecap="round" stroke-linejoin="round"/>
</svg>
