<svg width="319" height="301" viewBox="0 0 319 301" fill="none" xmlns="http://www.w3.org/2000/svg">
<ellipse rx="125.969" ry="100.963" transform="matrix(-0.865779 -0.500427 -0.499573 0.866272 159.5 150.5)" fill="#4FB63C"/>
<path d="M257.38 212.33C247.714 212.555 236.702 215.614 227.916 210.117C217.085 203.339 214.152 192.211 206.528 182.881C199.114 173.81 192.37 171.003 180.717 171.669C170.47 172.256 163.997 176.696 154.426 170.707C142.132 163.015 137.802 148.552 134.527 135.436C133.147 129.91 133.662 124.061 133.662 118.401C133.662 111.497 130.97 108.007 125.779 103.773C119.84 98.928 111.045 100.379 105.496 94.8231C94.8066 84.1213 91.5826 68.8922 93.8166 54.3548C94.6557 48.894 94.7752 45.4966 100.594 43.6243C104.162 42.476 107.866 41.6995 111.6 41.6995C115.863 41.6995 119.587 46.1839 123.953 43.4318C128.697 40.4412 131.063 35.3096 136.45 33.7117C146.128 30.8408 152.961 33.441 162.164 37.3206C166.394 39.1037 170.403 40.8401 174.325 43.2393C175.3 43.8362 175.751 46.6631 176.584 46.8482C179.86 47.5772 183.76 46.7725 187.11 46.9445C194.538 47.3259 201.477 49.7652 208.739 51.0346C218.292 52.7046 229.695 61.9518 229.695 72.0146" stroke="black" stroke-linecap="round" stroke-linejoin="round"/>
<path d="M129.338 114.456C117.345 114.456 105.319 112.591 94.9235 119.653C92.5385 121.273 87.4816 129.455 85.8874 126.582C82.8953 121.19 72.6643 119.653 67.2383 119.653C62.4332 119.653 56.2497 123.081 54.0687 127.448" stroke="black" stroke-linecap="round" stroke-linejoin="round"/>
<path d="M90.4062 65.9518C86.4188 65.1914 79.6933 63.8382 75.7466 65.5668C72.4742 67.0001 71.4259 71.7812 69.8347 74.6132C69.1081 75.9064 67.9858 73.0063 67.3834 72.496C65.5251 70.9218 62.5361 70.2825 60.1737 70.2825C56.4149 70.2825 56.5443 71.2695 54.0695 73.7471" stroke="black" stroke-linecap="round" stroke-linejoin="round"/>
<path d="M120.685 41.6994C112.719 37.7932 101.805 34.4785 93.0002 37.4168C89.1772 38.6926 81.5012 45.9057 80.0228 49.9759C79.6024 51.1332 77.9977 54.6118 76.5621 54.6916C75.4486 54.7535 71.5602 54.0211 70.6983 54.8841C68.8814 56.703 63.7516 72.0981 67.0454 73.7468" stroke="black" stroke-linecap="round" stroke-linejoin="round"/>
</svg>
