<svg width="242" height="264" viewBox="0 0 242 264" fill="none" xmlns="http://www.w3.org/2000/svg">
<ellipse rx="58.5379" ry="68.1168" transform="matrix(0.706543 0.70767 -0.706543 0.70767 97.0067 166.839)" fill="#537000"/>
<circle r="14.9006" transform="matrix(0.706543 0.70767 -0.706543 0.70767 144.382 120.894)" fill="#537000"/>
<circle r="14.9006" transform="matrix(0.706544 0.707669 -0.706544 0.707669 52.6394 212.783)" fill="#537000"/>
<ellipse rx="32.1643" ry="37.4315" transform="matrix(0.865634 -0.500677 0.499323 0.866416 192.545 54.6176)" fill="#537000"/>
<ellipse rx="8.18703" ry="8.18791" transform="matrix(0.865634 -0.500678 0.499323 0.866416 174.937 22.8988)" fill="#537000"/>
<ellipse rx="8.18703" ry="8.18791" transform="matrix(0.865634 -0.500678 0.499323 0.866416 210.582 84.7374)" fill="#537000"/>
<path d="M87.3281 209.99C89.0549 210.242 90.6883 209.99 92.4114 209.99" stroke="black" stroke-linecap="round" stroke-linejoin="round"/>
<path d="M98.7144 192.679C101.437 191.967 103.233 189.601 105.628 188.402" stroke="black" stroke-linecap="round" stroke-linejoin="round"/>
<path d="M121.491 192.476C122.884 191.065 126.168 188.67 126.168 186.366" stroke="black" stroke-linecap="round" stroke-linejoin="round"/>
<path d="M127.592 172.721C128.214 171.279 129.326 170.473 130.235 169.259" stroke="black" stroke-linecap="round" stroke-linejoin="round"/>
<path d="M147.315 160.706C147.315 162.402 147.347 164.101 147.315 165.797C147.306 166.246 147.081 167.645 146.705 167.834" stroke="black" stroke-linecap="round" stroke-linejoin="round"/>
<path d="M114.985 207.139C113.743 208.529 112.44 209.893 111.122 211.212" stroke="black" stroke-linecap="round" stroke-linejoin="round"/>
<path d="M144.671 182.904C143.973 184.228 143.104 185.433 142.435 186.774" stroke="black" stroke-linecap="round" stroke-linejoin="round"/>
<path d="M169.681 44.6207C169.681 46.6573 169.681 48.6939 169.681 50.7304" stroke="black" stroke-linecap="round" stroke-linejoin="round"/>
<path d="M176.595 64.3756C176.636 65.2527 176.859 66.0435 177.499 66.6837C177.612 66.7969 177.815 67.0119 177.815 66.8195" stroke="black" stroke-linecap="round" stroke-linejoin="round"/>
<path d="M190.625 77.0023C192.271 77.0646 193.687 78.0206 195.301 78.0206" stroke="black" stroke-linecap="round" stroke-linejoin="round"/>
<path d="M191.031 63.3572C191.451 64.1506 191.962 64.8575 192.455 65.5974" stroke="black" stroke-linecap="round" stroke-linejoin="round"/>
<path d="M179.848 48.2867C179.848 49.0905 179.673 49.7404 180.255 50.3233" stroke="black" stroke-linecap="round" stroke-linejoin="round"/>
<path d="M167.038 61.7281C167.038 62.0676 167.038 62.407 167.038 62.7464" stroke="black" stroke-linecap="round" stroke-linejoin="round"/>
</svg>
