<svg width="217" height="204" viewBox="0 0 217 204" fill="none" xmlns="http://www.w3.org/2000/svg">
<ellipse cx="105" cy="113.333" rx="104" ry="90" fill="#E4DFC9"/>
<path d="M84.5063 28.0384C84.5063 20.394 84.5063 -2.53951 84.5063 5.10498" stroke="black" stroke-linecap="round" stroke-linejoin="round"/>
<path d="M123.047 27.7199C123.047 19.4377 122.729 -5.40693 122.729 2.87528" stroke="black" stroke-linecap="round" stroke-linejoin="round"/>
<path d="M84.188 4.14941C86.9306 4.14941 88.0873 4.49545 90.4876 5.35271C91.229 5.61751 91.9248 5.98689 92.6111 6.37905C93.3456 6.79877 92.7671 6.91159 93.4959 6.37905C95.1487 5.17121 101.021 -0.449617 103.618 1.35351C105.645 2.76155 108.403 4.11962 109.599 6.37905C110.286 7.67706 112.761 5.73899 113.421 5.28193C114.821 4.31293 116.065 3.1828 117.633 2.48603C118.304 2.18756 120.604 2.02832 120.818 1.60125" stroke="black" stroke-linecap="round" stroke-linejoin="round"/>
<path d="M68.7672 25.3331C62.5071 34.3358 57.1442 43.6384 52.4253 53.5419C48.0515 62.721 45.4988 72.9304 43.4246 82.8569C41.4131 92.4834 41.1619 101.973 41.1619 111.77C41.1619 118.914 41.1847 125.894 42.5195 132.939C45.7761 150.126 51.9526 166.744 60.6214 181.914" stroke="black" stroke-linecap="round" stroke-linejoin="round"/>
<path d="M64.2417 187.345C65.9835 188.717 67.4869 190.313 69.4208 191.418C70.298 191.919 70.4383 192.88 71.4825 193.228" stroke="black" stroke-linecap="round" stroke-linejoin="round"/>
<path d="M52.928 31.2162C46.2266 37.0155 40.5835 45.2641 35.9323 52.7373C30.7285 61.0986 26.3377 70.2509 23.0599 79.5382C19.6145 89.3 17.1768 99.1368 17.1768 109.507" stroke="black" stroke-linecap="round" stroke-linejoin="round"/>
<path d="M18.082 113.127C18.082 122.347 17.701 131.171 19.8922 140.179C20.9142 144.381 22.279 148.628 23.7388 152.7C24.8277 155.737 25.2599 159.111 26.7055 162.002C29.4344 167.46 33.0468 172.283 36.6616 177.163C38.8772 180.154 41.3742 184.736 44.7823 186.44" stroke="black" stroke-linecap="round" stroke-linejoin="round"/>
<path d="M14.9142 70.5878C10.157 76.7041 7.98662 84.0525 6.5169 91.5558C5.41702 97.171 3.2518 102.333 2.59483 108.049C1.8712 114.344 1.33775 120.265 1.33775 126.603C1.33775 130.949 0.846519 135.58 1.7903 139.827" stroke="black" stroke-linecap="round" stroke-linejoin="round"/>
<path d="M99.088 31.6687C99.088 74.1076 99.088 116.546 99.088 158.985C99.088 164.247 99.3074 169.567 99.0628 174.824C99.0156 175.84 99.0691 179.661 98.1829 180.104" stroke="black" stroke-linecap="round" stroke-linejoin="round"/>
<path d="M72.8402 56.1063C72.8402 88.075 70.228 120.105 71.5077 152.097C71.731 157.679 72.8553 163.301 75.1029 168.439C75.7222 169.854 76.81 173.943 78.2707 174.674" stroke="black" stroke-linecap="round" stroke-linejoin="round"/>
<path d="M81.8911 185.535C81.8911 189.675 82.4641 192.925 83.2488 196.848" stroke="black" stroke-linecap="round" stroke-linejoin="round"/>
<path d="M114.022 191.87C114.201 188.476 114.992 185.453 116.033 182.216C118.645 174.1 121.153 165.998 123.349 157.753C127.343 142.765 130.19 127.758 131.671 112.323C132.632 102.306 133.729 92.3416 134.839 82.354" stroke="black" stroke-linecap="round" stroke-linejoin="round"/>
<path d="M133.029 71.4928C133.029 60.4306 133.029 49.3683 133.029 38.3061C133.029 37.119 133.751 32.2562 132.576 31.6687" stroke="black" stroke-linecap="round" stroke-linejoin="round"/>
<path d="M140.722 25.3331C165.292 39.8515 163.255 74.1782 162.872 98.8972C162.577 117.914 155.583 136.777 147.787 153.882C144.822 160.387 142.065 168.618 135.744 172.411" stroke="black" stroke-linecap="round" stroke-linejoin="round"/>
<path d="M131.671 181.009C129.867 185.048 127.323 188.801 125.336 192.776" stroke="black" stroke-linecap="round" stroke-linejoin="round"/>
<path d="M170.872 41.3326C175.889 45.9778 181.597 50.7385 185.623 56.1597C190.629 62.9005 193.453 70.8766 194.985 78.857C198.969 99.6025 196.914 121.629 189.975 141.655C186.987 150.279 182.941 158.802 177.703 166.461C172.57 173.967 166.117 179.81 159.384 186.043C155.927 189.243 152.234 193.165 147.998 195.552C146.948 196.144 145.244 197.333 144 197.333" stroke="black" stroke-linecap="round" stroke-linejoin="round"/>
<path d="M103.883 18.4798C120.318 18.4798 137.063 16.8887 152.462 24.1705C160.946 28.1824 168.719 33.3997 176.8 38.2144C183.178 42.0147 189.051 45.4983 193.974 51.3187C203.463 62.5358 211.118 71.5157 213.602 87.0812C215.826 101.016 217.327 118.773 214.289 132.711C211.459 145.695 202.745 155.748 193.974 165.08C185.121 174.499 173.423 179.486 161.736 183.875C149.514 188.465 137.385 192.333 124.394 192.333C117.263 192.333 110.131 192.333 103 192.333" stroke="black" stroke-linecap="round" stroke-linejoin="round"/>
</svg>
