<svg width="209" height="205" viewBox="0 0 209 205" fill="none" xmlns="http://www.w3.org/2000/svg">
<ellipse cx="94.7832" cy="110.252" rx="94.7832" ry="94.7479" fill="#FF9E0D"/>
<ellipse rx="18.0887" ry="29.2959" transform="matrix(0.258909 0.965902 -0.96595 0.258729 176.018 33.665)" fill="#537000"/>
<rect width="8.61585" height="34.457" transform="matrix(-0.866106 -0.49986 -0.50014 0.865945 167.732 4.30676)" fill="#537000"/>
<path d="M100.241 183.311C101.54 183.311 102.84 183.311 104.139 183.311" stroke="black" stroke-linecap="round" stroke-linejoin="round"/>
<path d="M116.664 172.173C118.212 170.598 119.577 168.879 121.041 167.233" stroke="black" stroke-linecap="round" stroke-linejoin="round"/>
<path d="M135.865 175.419C136.874 174.727 137.903 173.963 138.689 173.02" stroke="black" stroke-linecap="round" stroke-linejoin="round"/>
<path d="M140.242 153.967C142.019 152.19 143.49 150.342 144.478 148.039" stroke="black" stroke-linecap="round" stroke-linejoin="round"/>
<path d="M157.467 151.003C159.177 149.626 160.821 148.09 162.22 146.392C162.578 145.958 162.832 145.502 162.832 144.934" stroke="black" stroke-linecap="round" stroke-linejoin="round"/>
<path d="M159.726 132.514C159.905 129.263 160.535 126.003 160.996 122.776" stroke="black" stroke-linecap="round" stroke-linejoin="round"/>
<path d="M147.725 125.457C146.623 127.758 145.473 130.246 144.054 132.373" stroke="black" stroke-linecap="round" stroke-linejoin="round"/>
<path d="M128.665 149.027C127.428 150.778 126.319 152.635 124.97 154.304C124.502 154.883 123.861 155.387 123.582 156.084" stroke="black" stroke-linecap="round" stroke-linejoin="round"/>
<path d="M109.04 166.527C107.742 166.557 106.565 167.117 105.369 167.515" stroke="black" stroke-linecap="round" stroke-linejoin="round"/>
<path d="M90.2621 192.496C87.9561 192.496 81.038 192.496 83.344 192.496" stroke="black" stroke-linecap="round" stroke-linejoin="round"/>
</svg>
