<svg width="180" height="186" viewBox="0 0 180 186" fill="none" xmlns="http://www.w3.org/2000/svg">
<ellipse cx="91.5" cy="93" rx="76.5" ry="93" fill="#DEC9A2"/>
<ellipse cx="62.8757" cy="76.9087" rx="55" ry="71" transform="rotate(-6.67116 62.8757 76.9087)" fill="#DEC9A2"/>
<ellipse cx="116.876" cy="99.9087" rx="55" ry="71" transform="rotate(-6.67116 116.876 99.9087)" fill="#DEC9A2"/>
<path d="M35.2157 46.8244C35.0695 47.129 33.2755 50.7869 34.621 50.8387C35.4077 50.869 38.3096 51.0502 38.5424 50.0024C39.239 46.8679 38.3597 45.1517 35.2157 45.1517" stroke="black" stroke-linecap="round" stroke-linejoin="round"/>
<path d="M28.1907 67.5651C28.0018 68.5333 27.8562 69.43 27.8562 70.4085C27.8562 70.9018 28.6976 71.2269 28.8412 70.7245C29.0848 69.872 28.6213 67.9476 27.8562 67.5651" stroke="black" stroke-linecap="round" stroke-linejoin="round"/>
<path d="M45.2516 69.5723C45.2516 70.6377 45.035 71.9893 45.2702 73.0476C45.3865 73.571 45.9207 73.1201 45.9207 72.7503C45.9207 71.914 45.9207 71.0776 45.9207 70.2413" stroke="black" stroke-linecap="round" stroke-linejoin="round"/>
<path d="M45.2517 90.313C45.2517 91.5047 45.0522 92.4552 45.9208 93.3237" stroke="black" stroke-linecap="round" stroke-linejoin="round"/>
<path d="M158.991 98.3416C158.452 101.17 158.656 104.094 158.656 106.965C158.656 108.439 159.231 109.573 160.663 110.05" stroke="black" stroke-linecap="round" stroke-linejoin="round"/>
<path d="M85.7295 20.3967C86.57 22.3743 88.9789 23.0729 91.0819 23.0729C93.1359 23.0729 93.903 22.0211 95.7653 21.4003" stroke="black" stroke-linecap="round" stroke-linejoin="round"/>
<path d="M58.6328 9.69184C61.1786 9.69184 63.5818 10.0264 66.1411 10.0264C66.9303 10.0264 68.9994 7.69225 69.3377 7.01562" stroke="black" stroke-linecap="round" stroke-linejoin="round"/>
<path d="M62.3125 10.0265C63.6071 8.31753 64.0553 8.35382 65.9923 8.35382C66.4494 8.35382 68.9166 8.65022 67.9251 8.68835C66.5447 8.74144 65.4113 9.02287 64.0595 9.02287C63.2715 9.02287 65.7696 9.13473 66.3268 9.69193" stroke="black" stroke-linecap="round" stroke-linejoin="round"/>
<path d="M77.0317 161.902C79.2928 161.902 81.3159 161.439 82.9789 163.166C83.946 164.17 84.052 165.24 84.7259 166.251" stroke="black" stroke-linecap="round" stroke-linejoin="round"/>
<path d="M97.1032 104.698C96.6318 106.406 95.5373 110.892 96.5085 112.726C97.2685 114.162 99.6255 112.301 99.8538 111.388C100.195 110.024 100.628 107.405 99.5192 106.296C98.9374 105.714 98.2898 104.698 97.4377 104.698" stroke="black" stroke-linecap="round" stroke-linejoin="round"/>
<path d="M111.822 98.6761C111.599 99.8232 111.073 101.018 112.566 101.018C113.05 101.018 114.612 101.206 114.815 100.497C115.36 98.5902 113.91 98.3416 112.492 98.3416" stroke="black" stroke-linecap="round" stroke-linejoin="round"/>
<path d="M101.787 88.6404C101.787 95.7685 104.756 88.1178 103.125 87.3022" stroke="black" stroke-linecap="round" stroke-linejoin="round"/>
<path d="M132.229 32.7743C133.455 32.8042 135.908 33.2059 135.908 34.9487C135.908 35.9231 134.989 36.285 134.57 37.1231" stroke="black" stroke-linecap="round" stroke-linejoin="round"/>
<path d="M38.561 17.386C39.84 17.386 42.5754 17.4885 42.5754 19.3931" stroke="black" stroke-linecap="round" stroke-linejoin="round"/>
<path d="M33.8777 26.0837C34.5467 26.0837 35.2158 26.0837 35.8848 26.0837" stroke="black" stroke-linecap="round" stroke-linejoin="round"/>
<path d="M62.9814 152.535C64.015 153.287 65.0025 153.882 65.9922 154.542" stroke="black" stroke-linecap="round" stroke-linejoin="round"/>
<path d="M109.815 154.542C108.532 154.542 106.607 154.192 105.318 154.561C105.131 154.614 108.417 155.531 109.072 155.546C109.279 155.55 111.116 155.696 111.116 155.36C111.116 154.689 109.684 154.208 109.146 154.208" stroke="black" stroke-linecap="round" stroke-linejoin="round"/>
<path d="M153.304 118.413C153.304 119.305 153.304 120.197 153.304 121.089" stroke="black" stroke-linecap="round" stroke-linejoin="round"/>
</svg>
