<svg width="279" height="273" viewBox="0 0 279 273" fill="none" xmlns="http://www.w3.org/2000/svg">
<ellipse cx="139.5" cy="136.252" rx="105.369" ry="96.4957" transform="rotate(-30 139.5 136.252)" fill="#ED6A0B"/>
<path d="M56 91L70.3165 70.8684L90.1392 55.2105L56 32.8421L79.1266 6L103.354 45.1447H143L112.165 55.2105L103.354 91L90.1392 70.8684L56 91Z" fill="#537000" stroke="#537000"/>
<path d="M64.5803 31.4398C74.3424 35.8771 82.6969 42.6918 92.7234 46.573C95.763 47.7496 98.5156 47.6174 94.6446 50.2468C85.3614 56.5523 76.4853 64.8758 69.7371 73.8735C67.4931 76.8655 73.9483 72.5666 74.8938 72.0872C78.0362 70.4939 81.407 68.9393 84.1288 66.7619C88.7554 63.0606 92.2749 74.5605 93.4649 76.9406C94.4574 78.9255 95.7298 81.0706 96.8691 83.0074C97.778 84.5526 103.083 73.6419 103.677 72.4242C105.63 68.4254 106.552 64.1818 108.126 60.0884C109.139 57.4561 114.454 58.7403 116.62 58.7403C120.502 58.7403 124.462 59.08 128.248 58.1336C132.56 57.0556 126.235 52.8313 124.641 51.5275C120.679 48.2858 114.492 48.2056 110.081 46" stroke="black" stroke-linecap="round" stroke-linejoin="round"/>
<path d="M175.466 52.8475C169.909 52.014 163.329 50.7051 158.756 54.8623C156.022 57.3477 154.076 63.807 157.009 66.7397C158.33 68.0613 160.8 68.8387 162.532 69.2758C166.393 70.2506 170.421 70.6558 174.353 71.2483C179.027 71.9527 183.62 73.3671 187.991 75.1511C190.238 76.0683 192.251 76.9404 194.684 76.9404C197.056 76.9404 201.334 74.615 201.334 71.8401C201.334 66.909 196.221 62.0245 192.655 59.1877C190.448 57.4325 186.991 57.4328 184.356 56.5107C182.315 55.7964 180.188 54.3691 178.002 54.3691" stroke="black" stroke-linecap="round" stroke-linejoin="round"/>
<path d="M208.689 83.2807C207.001 83.651 206.23 84.4296 205.899 86.0845C205.536 87.9002 205.176 90.3692 206.392 91.8893C207.896 93.7695 209.029 96.6416 211.873 96.1866C215.36 95.6286 218.914 90 217.001 86.634C215.775 84.4759 213.036 82.2662 210.464 82.2662" stroke="black" stroke-linecap="round" stroke-linejoin="round"/>
</svg>
