<svg width="236" height="245" viewBox="0 0 236 245" fill="none" xmlns="http://www.w3.org/2000/svg">
<ellipse cx="117.948" cy="130.988" rx="92.4149" ry="73.7798" transform="rotate(34.4819 117.948 130.988)" fill="#E06308"/>
<path d="M88.2458 50.1294L112.946 50.5306L137.076 58.0036L136.182 17.1988L171.402 21.0621L152.855 63.1967L175.304 95.8745L149.547 76.1579L115.059 89.1612L124.17 66.8695L88.2458 50.1294Z" fill="#537000" stroke="#537000"/>
<path d="M142.197 23.4771C144.067 34.0359 143.18 44.7809 145.658 55.2428C146.41 58.4144 148.077 60.6084 143.718 58.9065C133.264 54.8253 121.378 52.2222 110.14 51.7547C106.404 51.5992 113.602 54.4858 114.533 54.9937C117.625 56.6816 120.815 58.5797 124.151 59.5903C129.822 61.3079 122.336 70.7204 121.048 73.049C119.974 74.9909 118.926 77.2544 117.975 79.29C117.216 80.9142 129.213 79.1086 130.553 78.9093C134.955 78.2547 138.974 76.6115 143.24 75.5914C145.983 74.9355 147.934 80.0436 149.16 81.8288C151.358 85.0285 153.321 88.4851 156.244 91.0697C159.574 94.0133 159.475 86.4082 159.647 84.3566C160.076 79.2553 156.639 74.1103 155.959 69.2255" stroke="black" stroke-linecap="round" stroke-linejoin="round"/>
<path d="M187.338 126.996C184.879 121.944 182.232 115.779 176.216 114.363C172.619 113.517 166.193 115.571 165.437 119.649C165.096 121.486 165.853 123.962 166.473 125.637C167.857 129.372 169.803 132.921 171.541 136.497C173.607 140.749 175.042 145.336 176.047 149.949C176.563 152.32 176.984 154.473 178.361 156.478C179.705 158.434 184.044 160.643 186.331 159.072C190.395 156.28 191.526 149.3 191.845 144.754C192.042 141.941 190.084 139.092 189.353 136.398C188.786 134.311 188.758 131.75 187.52 129.948" stroke="black" stroke-linecap="round" stroke-linejoin="round"/>
<path d="M181.065 171.612C179.804 170.431 178.726 170.236 177.174 170.9C175.472 171.629 173.233 172.73 172.669 174.593C171.971 176.898 170.245 179.458 172.23 181.544C174.665 184.103 181.316 183.845 183.008 180.362C184.093 178.13 184.363 174.621 182.906 172.501" stroke="black" stroke-linecap="round" stroke-linejoin="round"/>
</svg>
